<svg width="1814" height="783" viewBox="0 0 1814 783" fill="none" xmlns="http://www.w3.org/2000/svg">
<path d="M1459.61 19.1242C1458.33 19.5858 1458.32 21.3905 1459.59 21.8739L1469.63 25.687C1470.03 25.8389 1470.34 26.1578 1470.48 26.5601L1474.12 36.6557C1474.59 37.9357 1476.39 37.9511 1476.87 36.6792L1480.69 26.6449C1480.84 26.2452 1481.16 25.9316 1481.56 25.7866L1491.66 22.1457C1492.94 21.6841 1492.95 19.8794 1491.68 19.396L1481.65 15.5829C1481.25 15.431 1480.93 15.1121 1480.79 14.7098L1477.15 4.61419C1476.68 3.33418 1474.88 3.31881 1474.4 4.59076L1470.58 14.625C1470.43 15.0248 1470.11 15.3383 1469.71 15.4834L1459.61 19.1242Z" fill="white" stroke="black" stroke-width="3" stroke-linejoin="round"/>
<path d="M320.615 58.1242C319.335 58.5858 319.319 60.3905 320.591 60.8739L330.625 64.687C331.025 64.8389 331.339 65.1578 331.484 65.5601L335.125 75.6557C335.586 76.9357 337.391 76.9511 337.874 75.6792L341.687 65.6449C341.839 65.2452 342.158 64.9316 342.56 64.7866L352.656 61.1457C353.936 60.6841 353.951 58.8794 352.679 58.396L342.645 54.5829C342.245 54.431 341.932 54.1121 341.787 53.7098L338.146 43.6142C337.684 42.3342 335.88 42.3188 335.396 43.5908L331.583 53.625C331.431 54.0248 331.112 54.3383 330.71 54.4834L320.615 58.1242Z" fill="white" stroke="black" stroke-width="3" stroke-linejoin="round"/>
<path d="M1259.93 512.179C1258.87 512.563 1258.86 514.063 1259.91 514.465L1269.86 518.243C1270.19 518.369 1270.45 518.634 1270.57 518.969L1274.18 528.972C1274.56 530.036 1276.06 530.049 1276.46 528.992L1280.24 519.049C1280.37 518.717 1280.63 518.456 1280.97 518.335L1290.97 514.728C1292.04 514.344 1292.05 512.844 1290.99 512.442L1281.05 508.664C1280.72 508.538 1280.46 508.273 1280.34 507.938L1276.73 497.935C1276.34 496.871 1274.84 496.858 1274.44 497.915L1270.66 507.858C1270.54 508.19 1270.27 508.451 1269.94 508.571L1259.93 512.179Z" fill="white" stroke="black" stroke-width="3.04687" stroke-linejoin="round"/>
</svg>
